<svg width="27" height="26" viewBox="0 0 27 26" fill="none" xmlns="http://www.w3.org/2000/svg">
<path d="M25.7682 13.608H8.97534C8.49588 13.608 8.10675 13.2189 8.10675 12.7394C8.10675 12.26 8.49588 11.8708 8.97534 11.8708H25.7682C26.2477 11.8708 26.6368 12.26 26.6368 12.7394C26.6368 13.2189 26.2477 13.608 25.7682 13.608Z" fill="white"/>
<path d="M13.608 18.2403C13.3856 18.2403 13.1633 18.1559 12.9941 17.9856L8.36171 13.3532C8.02242 13.0137 8.02242 12.4637 8.36171 12.1244L12.9941 7.49196C13.3334 7.15266 13.8835 7.15266 14.223 7.49196C14.5623 7.83125 14.5623 8.38133 14.223 8.72062L10.2043 12.7393L14.223 16.758C14.5623 17.0973 14.5623 17.6474 14.223 17.9867C14.0527 18.1559 13.8303 18.2403 13.608 18.2403Z" fill="white"/>
<path d="M12.7394 25.4788C5.71539 25.4788 0 19.7634 0 12.7394C0 5.71539 5.71539 0 12.7394 0C18.0099 0 22.6633 3.1709 24.5962 8.0792C24.7722 8.52494 24.5521 9.02879 24.1063 9.20586C23.6604 9.37975 23.1565 9.16302 22.9794 8.71495C21.3106 4.47612 17.2908 1.73718 12.7394 1.73718C6.67304 1.73718 1.73718 6.67325 1.73718 12.7394C1.73718 18.8055 6.67304 23.7416 12.7394 23.7416C17.2908 23.7416 21.3106 21.0026 22.9794 16.7651C23.1555 16.3168 23.6593 16.1003 24.1063 16.274C24.5521 16.45 24.7722 16.9549 24.5962 17.4008C22.6633 22.3079 18.0099 25.4788 12.7394 25.4788Z" fill="white"/>
</svg>
